<svg width="37" height="37" viewBox="0 0 37 37" fill="none" xmlns="http://www.w3.org/2000/svg">
<path d="M29.1091 6.09395C29.5202 5.98415 29.9511 5.97039 30.3685 6.05374C30.7858 6.13708 31.1784 6.3153 31.5158 6.5746C31.8533 6.83391 32.1266 7.16735 32.3146 7.54915C32.5026 7.93095 32.6002 8.35087 32.6 8.77645V27.85C32.6003 28.2897 32.496 28.7233 32.2958 29.1148C32.0956 29.5064 31.8052 29.8448 31.4485 30.1021C31.0918 30.3594 30.6791 30.5282 30.2444 30.5947C29.8096 30.6611 29.3653 30.6233 28.9481 30.4843L20.1495 27.5502C19.6329 28.8495 18.6795 29.9281 17.4535 30.6004C16.2276 31.2728 14.8056 31.4968 13.4323 31.234C12.059 30.9711 10.8202 30.2379 9.92914 29.1604C9.03806 28.0829 8.55038 26.7285 8.55 25.3302V23.6837L4.8981 22.4664C4.34575 22.2825 3.86525 21.9295 3.52461 21.4573C3.18397 20.9852 3.00044 20.4179 3 19.8357V15.1923C2.99979 14.5805 3.20174 13.9858 3.57445 13.5007C3.94716 13.0155 4.46974 12.6672 5.0609 12.5097L29.1109 6.0958L29.1091 6.09395ZM10.4 24.3017V25.3302C10.3991 26.29 10.7298 27.2207 11.3363 27.9645C11.9428 28.7084 12.7877 29.2199 13.728 29.4123C14.6683 29.6047 15.6462 29.4663 16.4962 29.0204C17.3461 28.5745 18.0158 27.8487 18.392 26.9657L10.4 24.3017Z" fill="black"/>
</svg>
