<svg width="37" height="28" viewBox="0 0 37 28" fill="none" xmlns="http://www.w3.org/2000/svg">
<path d="M2.3125 27.75C2.3125 27.75 0 27.75 0 25.4375C0 23.125 2.3125 16.1875 13.875 16.1875C25.4375 16.1875 27.75 23.125 27.75 25.4375C27.75 27.75 25.4375 27.75 25.4375 27.75H2.3125ZM13.875 13.875C15.7149 13.875 17.4795 13.1441 18.7806 11.8431C20.0816 10.542 20.8125 8.77744 20.8125 6.9375C20.8125 5.09756 20.0816 3.33298 18.7806 2.03195C17.4795 0.730913 15.7149 0 13.875 0C12.0351 0 10.2705 0.730913 8.96945 2.03195C7.66841 3.33298 6.9375 5.09756 6.9375 6.9375C6.9375 8.77744 7.66841 10.542 8.96945 11.8431C10.2705 13.1441 12.0351 13.875 13.875 13.875Z" fill="black"/>
<path fill-rule="evenodd" clip-rule="evenodd" d="M31.2188 6.9375C31.5254 6.9375 31.8195 7.05932 32.0363 7.27616C32.2532 7.493 32.375 7.78709 32.375 8.09375V11.5625H35.8438C36.1504 11.5625 36.4445 11.6843 36.6613 11.9012C36.8782 12.118 37 12.4121 37 12.7188C37 13.0254 36.8782 13.3195 36.6613 13.5363C36.4445 13.7532 36.1504 13.875 35.8438 13.875H32.375V17.3438C32.375 17.6504 32.2532 17.9445 32.0363 18.1613C31.8195 18.3782 31.5254 18.5 31.2188 18.5C30.9121 18.5 30.618 18.3782 30.4012 18.1613C30.1843 17.9445 30.0625 17.6504 30.0625 17.3438V13.875H26.5938C26.2871 13.875 25.993 13.7532 25.7762 13.5363C25.5593 13.3195 25.4375 13.0254 25.4375 12.7188C25.4375 12.4121 25.5593 12.118 25.7762 11.9012C25.993 11.6843 26.2871 11.5625 26.5938 11.5625H30.0625V8.09375C30.0625 7.78709 30.1843 7.493 30.4012 7.27616C30.618 7.05932 30.9121 6.9375 31.2188 6.9375Z" fill="black"/>
</svg>
